<svg id="Layer_2" data-name="Layer 2" xmlns="http://www.w3.org/2000/svg" viewBox="0 0 541.66 55.37"><defs><style>.cls-1{fill:#6236f3;}</style></defs><path class="cls-1" d="M246,55.37c-1.49-.3-3-.53-4.48-.9a24,24,0,0,1-12.79-7.94c-.11-.14-.22-.3-.32-.45s0-.07,0-.14c1.29.73,2.52,1.54,3.85,2.17,8.66,4.11,18.72,1.47,24.9-6.66a67.35,67.35,0,0,0,4.71-6.55c-.86-.71-2.52-1.88-3.64-2.76l18.11-6.68V44.13l-4.81-3.24c-.7,1-1.26,1.93-1.89,2.78-4.76,6.51-11,10.48-19.13,11.41a5.33,5.33,0,0,0-.91.29Z"/><path class="cls-1" d="M245.76,13a10.21,10.21,0,0,1-1-1.79c-.38-1.1-.9-1.26-1.83-.6s-1.91,1.48-1.74,2.73l2.24,1,0,.43a5.32,5.32,0,0,1-1.38.59c-.63.06-1.35,0-1.26.83s-.81,2,.65,2.49a2.81,2.81,0,0,1,.56.35c-.15.2-.24.44-.41.51-2.79,1.19-3.6,3.54-3.75,6.3a12.72,12.72,0,0,0-.19,2.73,2.45,2.45,0,0,0,1.25,1.6,7.59,7.59,0,0,0,5.28.55,1.71,1.71,0,0,1,2.28,1c.76,1.3,1.62,2.55,2.33,3.88a6.28,6.28,0,0,1,.52,2c.18,1.35.18,2.73.47,4.05a17.62,17.62,0,0,0,1.28,2.9,16,16,0,0,1-6.8,3.42,5.14,5.14,0,0,1-4-.41c-1.75-.95-3.53-1.86-5.18-3s-1.84-2.17-1-3.95a1.13,1.13,0,0,0,.2-.51c-.09-1.65-.12-3.31-.33-4.94a2.71,2.71,0,0,0-3-2.1c-1.38.09-1.87-1.07-2.25-2-.33-.81-.59-1.3-1.52-1.53A2,2,0,0,1,226,28.2a19.58,19.58,0,0,1,1-9c.11-.3.26-.72.49-.81,1.7-.61,2.68-2.52,4.73-2.53a1.62,1.62,0,0,0,1.16-.92,3,3,0,0,1,3-2.39c.22,0,.44,0,.75,0a4.3,4.3,0,0,0,.06-.84c-.21-1.36-.47-2.72-.63-4.08a1.12,1.12,0,0,1,.52-.84c6.42-3.56,13.07-4.19,19.93-1.39A18.57,18.57,0,0,1,259.62,7c-1.72,2.05-3.83,1.78-4.77-.37a1.41,1.41,0,0,0-1.28-.5c-1.35.43-2.55,1.07-4.12.5-1-.36-2.06,1.29-2.16,2.58a31.19,31.19,0,0,1-.75,3.78Z"/><path class="cls-1" d="M239,48.32c-1.26-.32-2.52-.61-3.77-1-7.2-2-10.57-7.49-12.33-14.18a26.57,26.57,0,1,1,51.93-11c.26,1.66-.27,2.12-2.75,2.44-1.36-13-11.37-21.09-22.18-21.7A23.44,23.44,0,0,0,226,20C223,30.58,227.84,42.76,239,48.32Z"/><path class="cls-1" d="M266,23.24c1.44.21,2.77.32,2.87,2,0,.32-.24.88-.48.95-2,.56-3.7,1.82-5.94,1.6-2.44-.23-3-.52-3.61-2.93a12.81,12.81,0,0,1-.21-1.48c.87,1.16,1.69,2.36,2.61,3.47s3.65-.13,4.2-1.68C265.62,24.57,265.76,23.94,266,23.24Z"/><path class="cls-1" d="M245.8,17.29c1.58-.65,2.92-1.21,4.47.2.93.84,2.68.77,4,1.14a10.88,10.88,0,0,1,2,.61c.3.15.69.65.64.91a1.83,1.83,0,0,1-.8,1.17,1.22,1.22,0,0,1-1.16-.39c-.94-1.82-2.38-1.71-4-1.32a1.64,1.64,0,0,1-1.42-.5,2.75,2.75,0,0,0-2.87-1.48C246.37,17.65,246.08,17.41,245.8,17.29Z"/><path class="cls-1" d="M251.93,10.53l-2,.66.69-1.94,1.32.82Z"/><path class="cls-1" d="M259.09,9.55c.56-1,1.26-1.65,2.6-.66Z"/><path id="path878775" class="cls-1" d="M41.49,21.46a18.73,18.73,0,0,0-5.74-5.28,12.08,12.08,0,0,0-6.43-2.07,10.34,10.34,0,0,0-5.74,1.68,11,11,0,0,0-4,4.52,15.16,15.16,0,0,0-1.38,6.58,15.68,15.68,0,0,0,1.38,6.66,11.5,11.5,0,0,0,4,4.59,10.26,10.26,0,0,0,5.74,1.69,13.61,13.61,0,0,0,6.2-1.69,21.75,21.75,0,0,0,6-4.59l10.25,11a34.1,34.1,0,0,1-10.87,8,29.88,29.88,0,0,1-27.09-.69A26.67,26.67,0,0,1,3.67,41.66,29,29,0,0,1,0,27.12,27.24,27.24,0,0,1,3.75,12.88a26.64,26.64,0,0,1,10.33-10,31.15,31.15,0,0,1,15-3.59A30.07,30.07,0,0,1,41.41,2.09a29.84,29.84,0,0,1,10.33,7.2Z"/><path id="path878777" class="cls-1" d="M54.54,22.91a24,24,0,0,1,3.14-12.4,21.08,21.08,0,0,1,8.88-8.27A29.15,29.15,0,0,1,79.87-.66a30,30,0,0,1,13.55,2.9,21,21,0,0,1,9,8.27,23.67,23.67,0,0,1,3.21,12.4V54.14H87.83V42.74H72.3v11.4H54.54Zm33.29,0a9.11,9.11,0,0,0-2.14-6.35,7.77,7.77,0,0,0-11.33,0,9.31,9.31,0,0,0-2.06,6.35V30H87.83Z"/><path id="path878779" class="cls-1" d="M143.26,54.14l-6.43-13.93h-6.66V54.14H112.41V.48h26q10.95,0,16.92,5.06t6,14.16A22.19,22.19,0,0,1,159,29.88a16.48,16.48,0,0,1-6.28,6.81l10.56,17.45Zm-13.09-27.4h8.19a5.67,5.67,0,0,0,4.44-1.69,6.88,6.88,0,0,0,1.61-4.82,6.21,6.21,0,0,0-1.61-4.59A5.7,5.7,0,0,0,138.36,14h-8.19Z"/><path id="path878781" class="cls-1" d="M202.55,25.82h15.23V54.14H204.85V51.39a23.84,23.84,0,0,1-6.2,2.9,19.9,19.9,0,0,1-6.36,1.08,27.26,27.26,0,0,1-13.93-3.6,26.24,26.24,0,0,1-9.72-10,30.23,30.23,0,0,1-3.44-14.47A26.83,26.83,0,0,1,179.74,2.93,32.53,32.53,0,0,1,195.13-.66a37.14,37.14,0,0,1,12.7,2.29,32.84,32.84,0,0,1,10.8,6.13l-10,12.17a19.52,19.52,0,0,0-6.35-4.21,16.77,16.77,0,0,0-6.89-1.61,11.19,11.19,0,0,0-6.13,1.76A11.51,11.51,0,0,0,185,20.54a14.53,14.53,0,0,0-1.53,6.73,16.56,16.56,0,0,0,1.37,6.89,12.34,12.34,0,0,0,3.91,4.75,10,10,0,0,0,5.66,1.68,10.48,10.48,0,0,0,4.44-1,11.7,11.7,0,0,0,3.75-2.76Z"/><path id="path878785" class="cls-1" d="M307.12.48q10.49,0,16.22,5.06t5.75,14.16q0,9.72-5.75,15.15t-16.22,5.36h-7.43V54.14H281.93V.48Zm-.92,26.26a5.67,5.67,0,0,0,4.44-1.69,6.88,6.88,0,0,0,1.61-4.82,6.21,6.21,0,0,0-1.61-4.59A5.7,5.7,0,0,0,306.2,14h-6.51V26.74Z"/><path id="path878787" class="cls-1" d="M333.64,22.91a24.11,24.11,0,0,1,3.14-12.4,21.08,21.08,0,0,1,8.88-8.27A29.22,29.22,0,0,1,359-.66a30.07,30.07,0,0,1,13.55,2.9,21,21,0,0,1,9,8.27,23.58,23.58,0,0,1,3.22,12.4V54.14H366.94V42.74H351.4v11.4H333.64Zm33.3,0a9.11,9.11,0,0,0-2.14-6.35,7.77,7.77,0,0,0-11.33,0,9.32,9.32,0,0,0-2.07,6.35V30h15.54Z"/><path id="path878789" class="cls-1" d="M424.89-.66a17.93,17.93,0,0,1,9.49,2.45,15.79,15.79,0,0,1,6.28,6.88,23,23,0,0,1,2.22,10.41V54.14h-18V23.37A8.73,8.73,0,0,0,423,17.48a6.52,6.52,0,0,0-5.21-2.22,8.24,8.24,0,0,0-6.2,2.37,8.48,8.48,0,0,0-2.29,6.28V54.14H391.52V.48h17.76V8a17.6,17.6,0,0,1,6.5-6.36,18.18,18.18,0,0,1,9.11-2.29Z"/><path id="path878791" class="cls-1" d="M472.33,33.32a11.29,11.29,0,0,0-5,.92,2.85,2.85,0,0,0-1.84,2.6A3.6,3.6,0,0,0,467.73,40a12.78,12.78,0,0,0,5.75,1.15,34.57,34.57,0,0,0,8.8-1.3,32.88,32.88,0,0,0,8-3.22L496.9,49.4a40.23,40.23,0,0,1-11.33,4.36,59.22,59.22,0,0,1-13.78,1.61,40.34,40.34,0,0,1-13.09-1.92A19.49,19.49,0,0,1,450.13,48a12.9,12.9,0,0,1-3-8.5A12.91,12.91,0,0,1,450,31.18a17.17,17.17,0,0,1,8.19-5.36,13.73,13.73,0,0,1-5.67-5,13,13,0,0,1-2.06-7.19q0-6.81,6.12-10.64T473.4-.89A57.17,57.17,0,0,1,485.26.33a37.42,37.42,0,0,1,9.57,3.06l-5.59,12.94a37,37,0,0,0-7.12-2.14,32.28,32.28,0,0,0-7.19-.85,13.22,13.22,0,0,0-5.74,1,3,3,0,0,0-2,2.75,2.82,2.82,0,0,0,1.53,2.53,7.37,7.37,0,0,0,3.6.84H487.1V33.32Z"/><path id="path878793" class="cls-1" d="M501.55.48h17.76V39.37h22.35V54.14H501.55Z"/></svg>